<?xml version="1.0" standalone="no"?>
<!DOCTYPE svg PUBLIC "-//W3C//DTD SVG 20010904//EN"
 "http://www.w3.org/TR/2001/REC-SVG-20010904/DTD/svg10.dtd">
<svg version="1.0" xmlns="http://www.w3.org/2000/svg"
 width="1238.000000pt" height="1280.000000pt" viewBox="0 0 1238.000000 1280.000000"
 preserveAspectRatio="xMidYMid meet">
<metadata>
Created by potrace 1.15, written by Peter Selinger 2001-2017
</metadata>
<g transform="translate(0.000000,1280.000000) scale(0.100000,-0.100000)"
fill="#000000" stroke="none">
<path d="M11030 12785 c-301 -44 -579 -210 -762 -455 -346 -462 -308 -1095 91
-1513 457 -479 1229 -481 1687 -5 295 306 402 729 288 1133 -160 566 -719 927
-1304 840z"/>
<path d="M3462 10836 c-196 -48 -366 -215 -417 -412 -8 -32 -15 -97 -15 -144
0 -47 7 -112 15 -144 39 -147 150 -290 281 -358 141 -74 -44 -68 2276 -75
l2088 -6 -878 -872 c-483 -480 -907 -909 -942 -954 -122 -154 -192 -299 -241
-492 -29 -118 -37 -378 -15 -510 32 -196 118 -397 240 -559 41 -55 529 -555
1400 -1433 l1336 -1348 0 -1095 c0 -961 2 -1104 16 -1172 57 -276 276 -499
549 -558 94 -21 231 -18 311 7 227 69 452 292 535 532 l29 82 0 1571 c0 1530
-1 1573 -20 1648 -11 42 -38 114 -61 159 -41 80 -62 102 -958 1000 l-916 917
1171 1173 c1089 1091 1173 1178 1218 1256 150 258 204 546 161 850 -63 441
-325 744 -765 885 -220 71 37 66 -3319 65 -2421 -1 -3037 -3 -3079 -13z"/>
<path d="M3684 4238 c-1107 -1109 -1783 -1792 -1802 -1824 -176 -283 -138
-647 92 -879 233 -234 582 -280 869 -115 64 37 274 244 1839 1813 l1766 1772
-489 491 c-269 270 -489 496 -489 502 0 7 -3 12 -8 12 -4 0 -804 -798 -1778
-1772z"/>
<path d="M152 2627 l-152 -152 1153 -1151 c1121 -1120 1154 -1151 1222 -1182
184 -82 385 -52 599 91 83 56 276 233 276 254 0 4 -70 78 -155 163 l-154 154
-104 -101 c-57 -55 -119 -109 -138 -119 -44 -23 -124 -23 -169 0 -19 10 -526
508 -1125 1107 -600 599 -1092 1089 -1095 1089 -3 0 -74 -69 -158 -153z"/>
<path d="M11130 748 c0 -128 -4 -160 -19 -194 -23 -51 -72 -90 -131 -103 -30
-7 -560 -11 -1577 -11 l-1533 0 0 -220 0 -220 1608 0 c1757 0 1654 -3 1780 57
33 16 85 55 123 93 77 75 135 185 168 315 23 89 39 265 33 368 l-4 67 -224 0
-224 0 0 -152z"/>
</g>
</svg>
